<svg width="32" height="32" viewBox="0 0 32 32" fill="none" xmlns="http://www.w3.org/2000/svg">
  <rect width="32" height="32" fill="white"/>
  <path d="M16 4C13.2 4 10.6 4.8 8.4 6.2H23.6C21.4 4.8 18.8 4 16 4Z" fill="#EC008C"/>
  <path d="M6.2 9.4C5.3 10.4 4.7 11.6 4.3 12.8H27.7C27.3 11.6 26.7 10.4 25.8 9.4H6.2Z" fill="#EC008C"/>
  <path d="M4 16C4 16.5 4 17.1 4.1 17.6H27.9C28 17.1 28 16.5 28 16C28 15.5 28 14.9 27.9 14.4H4.1C4 14.9 4 15.5 4 16Z" fill="#EC008C"/>
  <path d="M4.3 19.2C4.7 20.4 5.3 21.6 6.2 22.6H25.8C26.7 21.6 27.3 20.4 27.7 19.2H4.3Z" fill="#EC008C"/>
  <path d="M8.4 25.8C10.6 27.2 13.2 28 16 28C18.8 28 21.4 27.2 23.6 25.8H8.4Z" fill="#EC008C"/>
</svg>
